<svg id="PROFINITY_LOGO" data-name="PROFINITY LOGO" xmlns="http://www.w3.org/2000/svg" width="119.787" height="58.676" viewBox="0 0 119.787 58.676">
  <path id="Path_5392" data-name="Path 5392" d="M1040.106,241.146a29.553,29.553,0,0,1-28.644,28.144,30.4,30.4,0,0,1-16.106-3.793c-.248-.137-.5-.282-.749-.429L982.457,258.2l8.614-4.864,7.758,4.363a21.717,21.717,0,0,0,12.711,3.206,20.948,20.948,0,0,0-1.271-41.875,21.7,21.7,0,0,0-11.124,3.05l-.063.039-8.108,4.562-2.12,1.2h0l-8.614,4.84-12.909,7.262,10.7,6.017-8.589,4.854L952.179,241.1a1.282,1.282,0,0,1,0-2.243l19.441-10.983h.006l8.6-4.864,4.038-2.281,10.34-5.838c.263-.16.529-.311.8-.457a30.289,30.289,0,0,1,14.748-3.793c16.956,0,30.615,13.775,29.953,30.5" transform="translate(-920.342 -210.643)" fill="#e50019"/>
  <path id="Path_5393" data-name="Path 5393" d="M993.731,241.1l-17.054,9.631-2.388,1.352-2,1.129-6.61,3.731-14.369,8.123c-.268.156-.535.312-.8.453a30.319,30.319,0,0,1-14.753,3.8c-16.557,0-29.973-13.144-29.973-29.341s13.416-29.336,29.973-29.336a30.369,30.369,0,0,1,14.8,3.819c.248.136.5.287.749.433l12.15,6.863-8.615,4.87-7.762-4.364a21.694,21.694,0,0,0-12.7-3.205,20.948,20.948,0,0,0,1.265,41.875,21.667,21.667,0,0,0,11.129-3.055l.059-.033,8.561-4.816.014.024,12.5-7.067,10.682-6.007-10.662-6,8.585-4.85,17.223,9.729a1.278,1.278,0,0,1,0,2.242" transform="translate(-905.783 -210.643)" fill="#fff"/>
</svg>
